<?xml version="1.0" encoding="utf-8"?>
<!-- Generator: Adobe Illustrator 24.0.1, SVG Export Plug-In . SVG Version: 6.00 Build 0)  -->
<svg version="1.1" id="Camada_1" xmlns="http://www.w3.org/2000/svg" xmlns:xlink="http://www.w3.org/1999/xlink" x="0px" y="0px"
	 viewBox="0 0 1017 242.3" style="enable-background:new 0 0 1017 242.3;" xml:space="preserve">
<style type="text/css">
	.st0{fill:none;}
	.st1{fill:#A8A8A8;}
	.st2{fill:#808080;}
	.st3{fill:#636363;}
	.st4{fill-rule:evenodd;clip-rule:evenodd;fill:#808080;}
	.st5{fill:#2B2B2B;}
	.st6{fill-rule:evenodd;clip-rule:evenodd;fill:#636363;}
	.st7{fill-rule:evenodd;clip-rule:evenodd;fill:#2B2B2B;}
	.st8{fill-rule:evenodd;clip-rule:evenodd;fill:#A8A8A8;}
</style>
<title>canais</title>
<g id="Camada_2_1_">
	<g id="Camada_4">
		<polygon class="st0" points="148.1,169.7 146.3,190.1 149.9,190.1 		"/>
		<polygon class="st0" points="21.8,185.4 21.8,183.7 18.5,212.9 24.4,212.9 		"/>
		<path class="st0" d="M57.6,215.5c-0.8-0.5-1.7-0.7-2.6-0.5v8.8c0,0,2,0.5,2.9-0.7c0.8-1,0.7-2.1,0.7-3.9S58.6,216.3,57.6,215.5z"
			/>
		<polygon class="st0" points="96.6,231.3 100.3,231.3 98.4,219.7 		"/>
		<polygon class="st1" points="114.9,166.9 77.4,174.8 77.4,183.4 115.8,192.5 77.4,192.5 77.4,205.4 138,205.4 138,186.1 
			111.1,179.9 138.4,175.2 138.4,154.7 77.7,154.7 77.7,166.9 		"/>
		<path class="st2" d="M15.3,242.3l1.9-13.8h8.6l1.4,13.8h16.7L32,154.7H11.6L0,242.3H15.3z M21.8,183.7v1.7l2.6,27.6h-5.9
			L21.8,183.7z"/>
		<polygon class="st2" points="46.4,205.4 46.4,179.9 52.6,205.4 57.5,205.4 57.5,154.7 52.2,154.7 52.2,181.1 47.1,154.7 
			41.4,154.7 41.4,205.4 		"/>
		<rect x="60.7" y="154.7" class="st2" width="13.2" height="50.7"/>
		<path class="st2" d="M145.3,205.4l0.8-9.2h4.2l0.8,9.2h5l-4.7-50.7H145l-4.7,50.7H145.3z M148.1,169.7l1.8,20.4h-3.7L148.1,169.7z
			"/>
		<polygon class="st2" points="169.8,154.7 158.4,154.7 158.4,205.4 178.9,205.4 178.9,195.4 169.8,195.4 		"/>
		<path class="st3" d="M64.3,228.4c1.3-1.4,2-3.2,1.9-5.1v-7.9c0-2.5-1.5-7-9.7-7H46.1v33.9h9v-11.6h4
			C61,230.6,62.9,229.8,64.3,228.4z M57.9,223c-0.9,1.2-2.9,0.7-2.9,0.7V215c0.9-0.2,1.8,0,2.5,0.5c1,0.8,1,1.7,1,3.6
			S58.7,222,57.9,223z"/>
		<polygon class="st3" points="68.5,208.3 68.5,242.3 85.4,242.3 85.4,235.2 77.4,235.2 77.4,208.3 		"/>
		<path class="st3" d="M103.5,208.3H93.3l-6.7,33.9h8.8l0.8-4.2h4.5l0.8,4.2h8.8L103.5,208.3z M96.6,231.3l1.8-11.6l1.8,11.6H96.6z"
			/>
		<polygon class="st3" points="136.6,208.3 128.4,208.3 128.4,224.6 119.8,208.3 112.1,208.3 112.1,242.3 120,242.3 120,226.8 
			129.4,242.3 136.6,242.3 		"/>
		<polygon class="st3" points="138.8,242.3 156.2,242.3 156.2,235.6 147.8,235.6 147.8,228 156.2,228 156.2,221.7 147.8,221.7 
			147.8,215 156.2,215 156.2,208.3 138.8,208.3 		"/>
		<polygon class="st3" points="158.4,214.8 164.1,214.8 164.1,242.3 173,242.3 173,214.8 178.9,214.8 178.9,208.3 158.4,208.3 		"/>
		<polygon class="st3" points="172.6,194.4 172.6,192.2 173.4,192.2 173.4,191.8 171.3,191.8 171.3,192.2 172,192.2 172,194.4 		"/>
		<polygon class="st3" points="176.5,194.4 176.5,191.8 175.7,191.8 175.1,193.6 175.1,193.6 174.5,191.8 173.7,191.8 173.7,194.4 
			174.2,194.4 174.2,192.5 174.3,192.5 174.9,194.4 175.3,194.4 176,192.5 176,192.5 176,194.4 		"/>
		<path class="st4" d="M230.9,156.8h31.8l-16.7,56.1c-1.2,3.9,1.3,7.2,5.4,7.2l0,0c4.3-0.2,8.1-3.1,9.5-7.2l16.7-56.1h28.2
			l-19.3,71.8c-1.7,6.3-8.5,11.5-15,11.5h-48.8c-7.8,0-12.5-6.2-10.5-13.7L230.9,156.8z"/>
		<polygon class="st4" points="326.2,240.1 295.5,240.1 310.5,187.4 341.3,187.4 341.3,187.4 373.9,187.4 368,206.9 335.3,206.9 
			326.2,240.1 		"/>
		<path class="st4" d="M404.8,155.9h41.5c6.1,0,16.4,4.9,14.3,12.6l-0.8,3h-37.1c-2,0.1-3.8,1.5-4.4,3.4l-11.5,41.7
			c-0.5,1.3,0.2,2.8,1.5,3.2c0.3,0.1,0.7,0.2,1,0.2h37.2l-2.7,9.9c-1.6,5.7-7.7,10.5-13.8,10.5h-43.9c-7.7,0-12.5-6-10.6-13.3
			l16.2-61.4C393.3,160.3,399.1,155.9,404.8,155.9L404.8,155.9z"/>
		<path class="st4" d="M377.2,176.1h-32.6v0.1h-30.7l5.9-20.4h63.3L377.2,176.1z"/>
		<g id="g39">
			<polygon id="polygon27" class="st1" points="520.3,173.6 999.9,173.6 999.9,229.5 520.3,229.5 			"/>
			<path id="path29" class="st5" d="M632.9,195.3v-7.4c0-1-0.8-1.8-1.7-1.9c0,0-0.1,0-0.1,0h-32.7c-1,0-1.8,0.8-1.8,1.7
				c0,0,0,0.1,0,0.1v9.5c0.5,0,1.3-0.3,1.8-0.3H631c1,0.1,1.8-0.7,1.9-1.7C632.9,195.3,632.9,195.3,632.9,195.3z"/>
			<path id="path31" class="st5" d="M914.6,195.3v-7.4c0-1-0.8-1.8-1.7-1.9c0,0-0.1,0-0.1,0H880c-1,0-1.8,0.8-1.8,1.7
				c0,0,0,0.1,0,0.1v9.5c0.5,0,1.3-0.3,1.8-0.3h32.8c1,0,1.8-0.8,1.8-1.7C914.6,195.3,914.6,195.3,914.6,195.3L914.6,195.3z"/>
			<g id="g37">
				<path id="path33" class="st5" d="M564.7,186h-33c-1,0-1.8,0.8-1.8,1.7c0,0,0,0.1,0,0.1v9.5c0.5,0,1.3-0.3,1.8-0.3h33
					c1,0,1.8-0.8,1.8-1.7c0,0,0-0.1,0-0.1v-7.4c0-1-0.8-1.8-1.7-1.9C564.8,186,564.7,186,564.7,186z"/>
				<path id="path35" class="st5" d="M986.2,185.5h-38.6c-1.3,0-1.8,0.8-1.8,1.6v6.1h40.4v9.5h-40.4v7.1c0.1,0.9,0.9,1.6,1.8,1.6
					h38.6v9.8h-38.6c-7.9,0-12.4-5.8-12.4-11.4v-21.9c0-4.8,4-11.6,11.6-11.6h39.4V185.5z M912.2,221.1l-14.3-14.3h-17.7
					c-1,0-1.8,0.8-1.8,1.7c0,0,0,0.1,0,0.1v9l0,0v3.7h-9.8v-33.6c0.1-6.4,5.2-11.6,11.6-11.6H913c6.4,0.1,11.6,5.2,11.6,11.6v7.4
					c-0.1,6.4-5.2,11.6-11.6,11.6h-1.3l14.5,14.3L912.2,221.1z M857.5,185.5h-38.6c-1.3,0-1.8,0.8-1.8,1.6v6.1h40.4v9.5h-40.4v7.1
					c0.1,0.9,0.9,1.6,1.8,1.6h38.6v9.8h-38.6c-7.9,0-12.4-5.8-12.4-11.4v-21.9c0-4.8,4-11.6,11.6-11.6h39.4V185.5z M795.7,221.4
					h-10.6V176h10.6V221.4z M774.3,221.2H764v-32l-14.5,26.7h-8.8l-15.3-26.7v32.2h-10.3v-45.2h12.4l16.9,29.6l17.4-29.6H774v44.9
					L774.3,221.2z M704.5,185.5h-38.6c-1.3,0-1.8,0.8-1.8,1.6v6.1h40.4v9.5h-40.4v7.1c0.1,0.9,0.9,1.6,1.8,1.6h38.6v9.8h-38.6
					c-7.9,0-12.4-5.8-12.4-11.4v-21.9c0-4.8,4-11.6,11.6-11.6h39.4V185.5z M630.5,221.1l-14.3-14.3h-17.7c-1,0-1.8,0.8-1.8,1.7
					c0,0,0,0.1,0,0.1v9l0,0v3.7h-10v-33.6c0.1-6.4,5.2-11.6,11.6-11.6H631c6.4,0.1,11.6,5.2,11.6,11.6v7.4
					c-0.1,6.4-5.2,11.6-11.6,11.6h-1l14.5,14.3L630.5,221.1z M575.8,195.3c-0.1,6.4-5.2,11.6-11.6,11.6h-32.5c-1,0-1.8,0.8-1.8,1.7
					c0,0,0,0.1,0,0.1v12.7H520v-4l0,0v-29.6c0.1-6.4,5.2-11.6,11.6-11.6h32.5c6.4,0.1,11.6,5.2,11.6,11.6V195.3z M1006.8,157.2
					H499.4c-4.4,0-7.9,3.6-7.9,7.9v67.4c0,4.4,3.6,7.9,7.9,7.9h507.4c4.4,0,7.9-3.6,7.9-7.9v-67.4c0.1-4.3-3.3-7.8-7.6-7.9
					C1007,157.2,1006.9,157.2,1006.8,157.2L1006.8,157.2z"/>
			</g>
		</g>
	</g>
	<g>
		<path class="st2" d="M551.7,127.7h-3.9l-1.2-0.1c-0.6,0-1.8-0.2-2.6-0.3c-0.8-0.1-2.3-0.3-3.3-0.6c-1-0.2-2.5-0.6-3.3-0.8
			c-0.8-0.2-2.1-0.6-2.9-1s-2.1-0.8-2.7-1.2c-0.7-0.4-1.8-0.9-2.4-1.3c-0.6-0.4-1.7-1-2.4-1.5c-0.7-0.4-1.1-0.8-1.1-0.8
			s2.8-2.5,6.2-5.5c3.4-3,6.3-5.6,6.4-5.7l0.2-0.1l1.1,0.6c0.6,0.3,1.8,0.8,2.6,1.2c0.9,0.4,2.1,0.8,2.9,1c0.7,0.2,1.8,0.5,2.4,0.6
			l1.1,0.2l1.5,0.1l1.5,0.1l0.9-0.1l0.9-0.1l0.6-0.2l0.6-0.3l0.5-0.4l0.5-0.4l0.2-0.5l0.2-0.4v-0.8l-0.2-0.5l-0.2-0.5l-0.4-0.3
			c-0.4-0.3-0.8-0.5-1.2-0.7l-0.8-0.4l-1.4-0.4l-1.4-0.4l-3.3-0.7c-1.8-0.4-3.7-0.8-4.3-0.9c-0.6-0.1-1.8-0.5-2.8-0.9
			c-1-0.3-2.3-0.8-3-1.1s-1.7-0.8-2.4-1.1c-0.7-0.3-1.6-0.9-2-1.2c-0.5-0.3-1.3-0.9-1.7-1.2c-0.5-0.5-1-1-1.4-1.5
			c-0.4-0.4-0.9-1-1.1-1.3c-0.2-0.3-0.6-0.9-0.9-1.4c-0.3-0.6-0.6-1.2-0.8-1.8l-0.4-1l-0.2-1.2l-0.2-1.2v-1.5l-0.1-1.5l0.1-1.3
			l0.1-1.3l0.3-1.1c0.1-0.6,0.4-1.4,0.6-1.9c0.2-0.5,0.5-1.3,0.8-1.8c0.3-0.5,0.7-1.3,1-1.8c0.3-0.4,0.8-1.1,1.1-1.6
			c0.3-0.4,1-1.1,1.5-1.6c0.5-0.5,1.2-1.1,1.5-1.3c0.3-0.3,1.1-0.8,1.6-1.1l0.9-0.6l1.4-0.7c0.8-0.4,1.9-0.8,2.4-1s1.4-0.5,1.9-0.6
			c0.5-0.2,1.6-0.4,2.3-0.6c0.7-0.2,1.9-0.3,2.6-0.4l1.3-0.2l2.9-0.1h3l2,0.1c1.1,0.1,2.8,0.2,3.7,0.3l1.7,0.2l1.9,0.4l1.9,0.4
			l1.5,0.4c0.8,0.2,2.2,0.7,3,1l1.5,0.6l1.8,0.9l1.8,0.9l1.6,1c0.5,0.3,1.1,0.7,1.5,1.1c0,0-2.8,2.6-6.3,5.7l-6.4,5.6h-0.1l-1.8-0.8
			c-0.9-0.4-2.3-1-3.1-1.3c-0.8-0.3-2-0.7-2.7-0.8s-1.7-0.4-2.3-0.5l-1.1-0.2h-2.9l-0.8,0.2l-0.8,0.2l-0.5,0.5l-0.5,0.5l-0.2,0.5
			l-0.2,0.4v1.2l0.1,0.3l0.1,0.3l0.3,0.4c0.2,0.2,0.5,0.5,0.8,0.6c0.4,0.2,0.9,0.4,1.4,0.6c0.5,0.2,1.5,0.5,2.1,0.6
			c0.6,0.2,2.5,0.6,4.1,1l2.9,0.7l1.6,0.5c0.9,0.3,2.4,0.8,3.2,1.1l1.5,0.6l1.4,0.7l1.4,0.7l1.2,0.8l1.2,0.8l1.3,1.3l1.3,1.3
			l0.6,0.8c0.3,0.5,0.6,1,0.9,1.5c0.3,0.5,0.5,1.1,0.7,1.6c0.2,0.5,0.4,1.4,0.5,1.9l0.2,0.9v5l-0.3,1.2l-0.3,1.2l-0.4,1.1l-0.4,1.2
			l-0.5,1.1l-0.5,1.1l-0.7,1l-0.7,1l-1,1.1l-1,1.1l-0.9,0.7c-0.5,0.4-1.3,1-1.9,1.3c-0.6,0.3-1.6,0.9-2.3,1.2l-1.3,0.6l-1.5,0.5
			l-1.5,0.5l-1.2,0.3c-0.7,0.2-1.9,0.4-2.8,0.5l-1.6,0.2L551.7,127.7L551.7,127.7z M674.5,127.7h-3.2l-1.3-0.2
			c-0.7-0.1-1.7-0.2-2.2-0.3c-0.5-0.1-1.5-0.3-2.2-0.5c-0.7-0.2-1.9-0.5-2.6-0.8s-1.8-0.6-2.3-0.9c-0.6-0.2-1.6-0.7-2.2-1.1
			c-0.6-0.3-1.7-1-2.4-1.5c-0.7-0.5-1.7-1.2-2.2-1.6c-0.5-0.4-1.5-1.2-2.1-1.9l-1.2-1.2l-0.9-1.1c-0.5-0.6-1.2-1.6-1.6-2.2
			c-0.4-0.6-1-1.6-1.4-2.2s-0.9-1.6-1.2-2.3c-0.3-0.6-0.6-1.6-0.8-2c-0.2-0.5-0.5-1.6-0.8-2.6l-0.4-1.7l-0.2-1.2
			c-0.1-0.6-0.2-2-0.3-2.9l-0.1-1.7l0.1-1.9l0.1-1.9l0.2-1.3c0.1-0.7,0.4-1.9,0.6-2.7c0.2-0.8,0.5-1.8,0.7-2.3s0.5-1.3,0.7-1.8
			c0.2-0.5,0.7-1.5,1-2.1c0.3-0.6,0.9-1.6,1.3-2.3c0.4-0.6,1.2-1.7,1.7-2.3l0.9-1.2l1.2-1.2l1.2-1.2l1.2-0.9
			c0.6-0.5,1.7-1.3,2.4-1.7c0.7-0.4,1.7-1,2.2-1.4c0.6-0.3,1.4-0.7,1.8-0.9c0.4-0.2,1.2-0.5,1.8-0.8s1.6-0.6,2.3-0.8
			c0.7-0.2,1.7-0.5,2.4-0.6s1.8-0.3,2.5-0.5L671,68l2.6-0.1h2.6l1.8,0.2l1.8,0.2l1.5,0.3c0.8,0.2,2,0.4,2.5,0.6
			c0.5,0.2,1.6,0.5,2.3,0.8l1.3,0.5l1.9,1l1.9,1l1.3,0.9c0.7,0.5,1.7,1.2,2.2,1.6s1.4,1.2,2,1.8l1.1,1l0.9,1.1l0.9,1.1l0.8,1.6
			l1,1.5l0.9,1.9l0.9,1.9l0.6,1.7l0.6,1.7l0.3,1.6c0.2,0.9,0.4,2.2,0.5,2.8l0.1,1.2v4.5l-0.2,1.3c-0.1,0.7-0.3,1.7-0.3,2.2
			c-0.1,0.5-0.3,1.5-0.5,2.2s-0.5,1.8-0.8,2.4c-0.2,0.6-0.7,1.8-1.2,2.6l-0.8,1.6l-1,1.5c-0.5,0.8-1.3,1.9-1.7,2.4
			c-0.4,0.5-1.3,1.5-2,2.2l-1.3,1.3l-1.1,0.9c-0.6,0.5-1.6,1.2-2.2,1.6c-0.6,0.4-1.6,1-2.3,1.4c-0.7,0.4-1.7,0.9-2.4,1.2l-1.2,0.5
			l-1.8,0.6l-1.8,0.6l-1.3,0.3c-0.7,0.1-1.9,0.4-2.5,0.5l-1.2,0.2L674.5,127.7L674.5,127.7z M674,110.8h1.4l0.9-0.2
			c0.6-0.1,1.1-0.3,1.6-0.4c1.5-0.5,2.9-1.3,4-2.4l0.7-0.7l0.6-0.8l0.6-0.8l0.5-0.9l0.5-0.9l0.3-1c0.2-0.6,0.4-1.2,0.5-1.9l0.2-0.9
			l0.1-1.2l0.1-1.2l-0.1-1.2l-0.1-1.2l-0.3-1l-0.3-1l-0.4-1l-0.4-1l-0.6-1l-0.6-1l-1-0.9l-1-1l-0.7-0.4c-0.4-0.3-0.9-0.6-1.4-0.8
			c-0.5-0.2-1.1-0.5-1.6-0.6l-0.9-0.3l-0.9-0.1l-0.9-0.1h-1.3h-1.3l-1.1,0.3l-1.1,0.3l-0.9,0.4l-0.9,0.5l-0.9,0.6l-0.9,0.6l-0.6,0.6
			c-0.4,0.4-0.7,0.8-1.1,1.3c-0.4,0.5-0.7,1-1,1.6l-0.5,0.9l-0.3,1c-0.2,0.6-0.4,1.2-0.5,1.9l-0.2,0.9l-0.1,1.2l-0.1,1.2l0.1,1.1
			l0.1,1.1l0.3,1l0.3,1l0.4,0.9c0.3,0.6,0.6,1.2,0.9,1.8l0.5,0.9l1,1l1,1l0.8,0.6c0.4,0.3,0.9,0.6,1.3,0.8c0.3,0.1,0.8,0.4,1.2,0.5
			s1.1,0.4,1.7,0.5l1,0.2L674,110.8z M591.2,127.3h-9.3V68.7h18.5V89h19V68.7h18v58.6h-18v-20.3h-19v20.3L591.2,127.3z M720.5,127.3
			h-9.6V68.7h18.3v27.8h0.1c0,0,3.1-4.4,6.7-9.8l6.6-9.8h0.2l6.6,9.8l6.6,9.8V82.6V68.7h19.4v58.6h-10.2h-10.2l-6.1-9.8
			c-3.4-5.4-6.2-9.8-6.2-9.9l-0.1-0.1l-6.1,9.9l-6.2,9.9L720.5,127.3z M626.4,61.8l-1.4-0.1c-0.5,0-1.5-0.1-2.4-0.1
			c-0.9-0.1-2.2-0.2-2.9-0.3c-0.8-0.1-1.9-0.3-2.4-0.4c-0.5-0.1-1.5-0.4-2-0.5s-1.6-0.5-2.2-0.7c-0.7-0.3-1.7-0.7-2.4-1.1
			s-1.6-0.9-2.1-1.2c-0.5-0.3-1.2-0.8-1.6-1.1c-0.4-0.3-1.1-0.9-1.6-1.4c-0.5-0.5-1.2-1.3-1.6-1.7c-0.4-0.4-0.9-1.2-1.2-1.6
			s-0.8-1.4-1.2-2c-0.4-0.6-0.8-1.6-1-2.3c-0.3-0.6-0.6-1.6-0.8-2.3c-0.2-0.6-0.4-1.8-0.6-2.5c-0.2-0.8-0.4-2.1-0.5-2.9l-0.2-1.5
			V20.5V3.1h20.3v16.2v16.2l0.2,1.2l0.2,1.2l0.3,0.9l0.3,0.9l0.5,0.9l0.5,0.9l0.8,0.8l0.8,0.9l0.8,0.4l0.8,0.4l0.7,0.2l0.7,0.2h3.4
			l0.7-0.2l0.7-0.2l0.8-0.4l0.8-0.4l0.8-0.8l0.8-0.8l0.5-1l0.5-1.1l0.2-0.7c0.1-0.4,0.3-1.1,0.3-1.6l0.2-0.9V19.7V3.2h20.7v17.5
			v17.5l-0.2,1.3c-0.1,0.7-0.3,1.9-0.4,2.5c-0.1,0.6-0.4,1.8-0.6,2.6l-0.4,1.4l-0.5,1.2c-0.3,0.7-0.8,1.7-1.1,2.3
			c-0.3,0.6-0.8,1.3-1,1.7c-0.3,0.4-0.8,1.1-1.1,1.6l-0.7,0.9l-1.1,1.1l-1.1,1.1l-0.9,0.7c-0.5,0.4-1.4,1-2,1.3s-1.5,0.8-2.1,1.1
			s-1.5,0.6-2.1,0.9c-0.6,0.2-1.6,0.5-2.3,0.7c-0.7,0.2-1.8,0.5-2.6,0.6s-2,0.4-2.9,0.5l-1.5,0.2l-2.2,0.1
			C627.9,61.8,626.7,61.8,626.4,61.8L626.4,61.8z M684.7,60.5h-23.1V3.2h18.7v41.1h27.4v16.2H684.7z M724.5,60.5h-9.4V19.4H699V3.2
			H750v16.2H742h-8.1v20.5v20.5L724.5,60.5z M765.6,60.5h-9.4V3.2H775v57.3H765.6z M536.5,60H527V3.1H547l6.2,9.9
			c3.4,5.5,6.2,9.9,6.3,9.9c0,0,2.9-4.5,6.3-9.9l6.2-9.9h19.3V60h-18V46.6V33.3l-6.8,9.9c-3.8,5.4-6.8,9.8-6.9,9.8
			c-0.1,0-3.1-4.5-6.8-9.9l-6.7-9.9v13.4v13.4L536.5,60z"/>
		<path id="path4-9" class="st1" d="M104.4,0.7h104.7v104.5H104.4C104.4,105.3,104.4,0.7,104.4,0.7z"/>
		<path id="path4" class="st5" d="M0,0.7h104.6v104.5H0V0.7z"/>
		<path id="path8" class="st1" d="M50.4,6.5c13.4-1.4,26.7,3,36.6,12.2c3.5,3.2,6.5,7,8.8,11.1c-8.7,4.9-17.3,9.9-26,14.9
			c-1.7-3-4.3-5.4-7.4-6.9c-6.5-3.1-14.2-1.6-19.3,3.5c-6.4,6.7-6.2,17.3,0.5,23.7c6.7,6.4,17.3,6.2,23.7-0.5c0.9-1,1.7-2,2.4-3.2
			c8.6,5,17.3,9.9,26,14.9C82.9,98.6,54.4,106.4,32,93.5S1.9,52.1,14.7,29.8C22.2,16.7,35.4,8.1,50.4,6.5z"/>
		<path id="path10" class="st5" d="M112.1,8.2h29.8c10,12.4,19.9,24.9,29.9,37.4c0-12.5,0-24.9,0-37.4h29.8c0,29.9,0,59.7,0,89.6
			h-0.9c-2.6,0-5.1,0-7.7,0c-4.5,0-9.1,0-13.6,0c-2.6,0-5.1,0-7.7,0c-9.9-12.4-19.9-24.9-29.8-37.3c0,12.4,0,24.9,0,37.3
			c-1.5,0-3.1,0-4.6,0h-0.7c-8,0-16.1,0-24.1,0h-0.5C112.1,67.9,112.1,38.1,112.1,8.2z"/>
		<path id="path12" class="st1" d="M6.3,113.8c1.7-1.2,3.8-1.5,5.8-0.9c1.6,0.5,3,1.6,3.9,3.1c-1.2,0.6-2.3,1.3-3.4,2
			c-0.6-0.9-1.6-1.4-2.6-1.3c-1.5,0.1-2.5,1.4-2.4,2.9c0.1,1.3,1.2,2.4,2.6,2.4c1,0,1.9-0.5,2.4-1.3c1.1,0.7,2.3,1.3,3.4,2
			c-1.2,1.9-3.1,3.1-5.4,3.3H9.7c-2.4-0.2-4.6-1.7-5.6-3.9c-0.5-1.2-0.7-2.5-0.5-3.8C3.8,116.4,4.8,114.8,6.3,113.8z"/>
		<path id="path14" class="st1" d="M65,112.6c-1.7,0-3.4,0.8-4.5,2c-1.2,1.2-1.9,2.8-1.9,4.5c0,1.5,0.5,3.1,1.5,4.3
			c1.1,1.3,2.7,2.2,4.5,2.4h1.4c1.8-0.2,3.4-1.1,4.5-2.5c1.1-1.4,1.6-3.1,1.4-4.9c-0.4-3.3-3.2-5.9-6.5-5.9L65,112.6z M65.2,116.8
			c1.3,0.1,2.4,1.2,2.3,2.5c-0.1,1.3-1.2,2.4-2.5,2.3c-1.1-0.1-2-1-2.1-2.2c-0.1-1.1,0.5-2.1,1.6-2.5
			C64.6,116.9,64.9,116.8,65.2,116.8L65.2,116.8z"/>
		<path id="path16" class="st1" d="M79.5,112.6c-0.4,0-0.8,0-1.2,0.1c-3.6,0.7-6,4.2-5.3,7.8c0.3,1.8,1.4,3.3,2.9,4.3
			c0.9,0.6,1.9,0.9,3,1.1h1.3c3.7-0.4,6.3-3.7,5.9-7.4c0-0.3-0.1-0.5-0.1-0.8c-0.4-1.8-1.6-3.3-3.2-4.2
			C81.9,112.9,80.7,112.6,79.5,112.6z M79.6,116.8c1.3,0,2.4,1.1,2.4,2.4c0,1.3-1,2.4-2.3,2.5c-1.3,0-2.4-1-2.5-2.3
			c0-0.2,0-0.4,0.1-0.6c0.2-0.9,0.9-1.6,1.8-1.8C79.2,116.9,79.4,116.8,79.6,116.8z"/>
		<path id="path18" class="st1" d="M171.9,112.6c-3.7,0-6.7,3-6.7,6.7c0,1.3,0.4,2.5,1,3.5c1.1,1.7,3,2.9,5.1,3.1h1.2
			c1.6-0.2,3-0.9,4.1-2c1-1.1,1.7-2.4,1.9-3.9c0.2-1.5-0.2-3.1-1-4.4c-1.1-1.7-2.8-2.8-4.8-3C172.5,112.6,172.2,112.6,171.9,112.6z
			 M171.8,116.8c1.3-0.1,2.5,0.9,2.5,2.3c0.1,1.3-0.9,2.5-2.3,2.5c-1.3,0.1-2.5-0.9-2.5-2.3c-0.1-1,0.5-2,1.5-2.4
			C171.3,116.9,171.5,116.8,171.8,116.8z"/>
		<path id="path20" class="st1" d="M26.5,112.8h-6.4c-1.3,4.3-2.6,8.5-3.9,12.8h4.5c0.2-0.7,0.4-1.4,0.6-2.1c1.4,0,2.7,0,4.1,0
			c0.3,0.7,0.4,1.4,0.6,2.1h4.5C29.2,121.4,27.9,117.1,26.5,112.8z M23.3,116.4c0.4,1.3,0.8,2.6,1.2,4h-2.3
			C22.5,119,22.9,117.7,23.3,116.4L23.3,116.4z"/>
		<path id="path22" class="st1" d="M31.8,112.9v12.8H36c0-1.2,0-2.5,0-3.7h1.4l1.9,3.7c1.6,0,3.1,0,4.7,0c-0.8-1.4-1.7-2.8-2.4-4.2
			c0.2-0.2,0.4-0.3,0.6-0.5c1.2-0.9,1.9-2.3,1.9-3.8c-0.1-2.4-2-4.2-4.4-4.3C37.1,112.8,34.4,112.9,31.8,112.9z M37.4,116.6h1.4
			c0.6,0,1,0.4,1.1,1c0,0,0,0.1,0,0.1c0,0.6-0.5,1-1,1H36c0-0.7,0-1.4,0-2.1H37.4z"/>
		<path id="path24" class="st1" d="M45.2,116.6c0-1.2,0-2.5,0-3.7H58v3.7c-1.3,0-2.7,0-4,0v9h-4.8v-9H45.2z"/>
		<path id="path26" class="st1" d="M87.5,112.9c1.4,0,2.8,0,4.2,0c1.5,1.7,2.8,3.6,4.3,5.3c0-1.8,0-3.5,0-5.3h4.2
			c0,4.3,0,8.5,0,12.8c-1.4,0-2.8,0-4.2,0c-1.5-1.7-2.8-3.6-4.3-5.3c-0.1,1.8,0,3.5,0,5.3h-4.2L87.5,112.9z"/>
		<path id="path28" class="st1" d="M108.9,112.9c1.4,0,2.8,0,4.2,0c1.4,1.8,2.8,3.6,4.3,5.3c0-1.8,0-3.5,0-5.3h4.2v12.8h-4.2
			c-1.5-1.8-2.9-3.6-4.3-5.3c0,1.8,0,3.6,0,5.3h-4.2C108.9,121.4,109,117.1,108.9,112.9z"/>
		<path id="path30" class="st1" d="M123.5,112.8c3.7,0,7.4,0,11.2,0c0,0.9,0,1.8,0,2.7c0,0.3,0,0.7-0.1,1c-2.3,0-4.6,0-6.9,0
			c0,0.4,0,0.8,0,1.2h5.8v3.1c-1.9,0-3.9,0-5.8,0c0,0.4,0,0.9,0,1.3c2.3,0,4.6,0,6.9,0v3.4h-11.1
			C123.5,121.4,123.5,117.1,123.5,112.8z"/>
		<path id="path32" class="st1" d="M136.1,112.9c4.3,0,8.5,0,12.8,0c0,1.2,0,2.5,0,3.7h-4v9h-4.7c0-3,0-6,0-9c-1.3,0-2.7,0-4,0
			L136.1,112.9z"/>
		<path id="path34" class="st1" d="M150,112.9c1.4,0,2.9,0,4.3,0c0.3,1.9,0.7,3.7,1.1,5.6c0.7-1.7,1.4-3.4,2.1-5.1
			c0.7,1.7,1.4,3.4,2.1,5.1c0.4-1.9,0.7-3.7,1.1-5.6c1.4,0,2.8,0,4.2,0c-0.8,4.3-1.6,8.5-2.4,12.8c-1.2,0-2.4,0-3.5,0
			c-0.5-1.2-1-2.3-1.5-3.4c-0.5,1.2-1,2.3-1.5,3.5c-1.2,0-2.3,0-3.5,0C151.6,121.4,150.8,117.1,150,112.9z"/>
		<path id="path36" class="st1" d="M183.7,112.9h-3.8c0,4.3,0,8.5,0,12.8h4.2c0-1.3,0-2.5,0-3.8h1.4c0.6,1.2,1.2,2.5,1.9,3.7
			c1.6,0,3.2,0,4.8,0c-0.8-1.4-1.7-2.8-2.5-4.2c1.3-0.7,2.3-1.9,2.6-3.4v-1c-0.1-0.9-0.5-1.7-1.1-2.4c-0.9-1-2.2-1.5-3.5-1.5
			L183.7,112.9z M184.1,116.6h2.7c0.6,0,1,0.5,1,1.1c0,0.1,0,0.2-0.1,0.3c-0.2,0.4-0.5,0.7-1,0.7c-0.9,0-1.8,0-2.7,0
			C184.1,118,184.1,117.3,184.1,116.6L184.1,116.6z"/>
		<path id="path38" class="st1" d="M193.5,125.6c0-4.3,0-8.5,0-12.8c1.4,0,2.8,0,4.3,0c0,1.4,0,2.7,0,4.1c1.1-1.4,2.1-2.8,3.2-4.2
			c1.8,0,3.6,0,5.4,0c-1.7,2-3.3,4.1-4.9,6.1c1.6,2.3,3.3,4.4,4.9,6.7h-5.4c-1.1-1.6-2.1-3.2-3.2-4.8c0,1.6,0,3.2,0,4.7
			C196.3,125.6,194.9,125.6,193.5,125.6z"/>
		<path id="path52" class="st1" d="M208.4,122.2h2.8v0.5h-1c-0.1,1-0.1,1.9-0.1,2.9h-0.7c0-1,0-1.9,0-2.9h-1
			C208.4,122.6,208.4,122.4,208.4,122.2z"/>
		<path id="path54" class="st1" d="M211.6,122.2h1c0.2,0.9,0.4,1.9,0.7,2.8c0.2-0.9,0.4-1.8,0.6-2.8h1v3.5h-0.6c0-1,0-1.9,0-2.9
			c-0.3,0.9-0.5,1.9-0.7,2.9H213c-0.3-0.9-0.4-1.9-0.7-2.8c-0.1,0.9,0,1.9,0,2.8h-0.6L211.6,122.2z"/>
		<polygon class="st6" points="362.4,0 330.9,0 330.9,41.5 362.4,41.5 362.4,31.6 345.3,31.6 345.3,25.8 362.4,25.8 362.4,15.8 
			345.3,15.8 345.3,10 362.4,10 362.4,0 362.4,0 		"/>
		<polygon class="st6" points="303.7,41.5 303.7,10 315.9,11.4 315.9,0 276.9,0 276.8,11.4 289.2,9.9 289.2,41.5 303.7,41.5 
			303.7,41.5 		"/>
		<polygon class="st6" points="458.1,0 426.6,0 426.6,41.5 458.1,41.5 458.1,31.6 441,31.6 441,25.8 458.1,25.8 458.1,15.8 
			441,15.8 441,10 458.1,10 458.1,0 458.1,0 		"/>
		<polygon class="st6" points="393.2,0 378.7,0 378.7,41.5 410.3,41.5 410.3,31.6 393.2,31.6 393.2,0 393.2,0 		"/>
		<path class="st7" d="M474.1,126.1v-71H267v71.1L474.1,126.1z M457.4,70.1v10h-17.1v5.8h17.1v10h-17.1v5.8h17.1v9.9h-31.6V70.1
			L457.4,70.1z M366.8,69.4l28.4,17V70.1h14.4v42.3l-28.3-17.1v16.4h-14.4L366.8,69.4L366.8,69.4z M350.5,111.7h-14.4V70.1h14.4
			V111.7z M308.3,86.9c-1.4-3.2-4.6-5.1-8.1-4.9c-2.2,0-4.3,0.8-5.9,2.4c-1.6,1.6-2.4,3.7-2.4,5.9c0,2.3,0.8,4.6,2.4,6.3
			c1.5,1.7,3.7,2.7,6,2.7c3.4,0,6.5-1.9,8-5l12.9,3.5c-1.2,4.4-3.9,8.1-7.8,10.5c-4.3,2.7-9.3,4.1-14.3,4
			c-11.5,0.4-21.2-8.6-21.6-20.1c0-0.5,0-1.1,0-1.6c-0.2-5.6,2-11.1,6-15c4.2-4.2,9.7-6.2,16.4-6.3c10.3,0,17.3,4.3,21,12.9
			L308.3,86.9z"/>
		<polygon class="st8" points="457.3,80.1 457.3,70.1 425.8,70.1 425.8,111.7 457.3,111.7 457.3,101.7 440.2,101.7 440.2,95.9 
			457.3,95.9 457.3,85.9 440.2,85.9 440.2,80.1 457.3,80.1 457.3,80.1 		"/>
		<polygon class="st8" points="395.1,86.4 366.8,69.4 366.8,111.7 381.2,111.7 381.2,95.3 409.5,112.4 409.5,70.1 395.1,70.1 
			395.1,86.4 395.1,86.4 		"/>
		<polygon class="st8" points="336.1,111.7 350.5,111.7 350.5,70.1 336.1,70.1 336.1,111.7 336.1,111.7 		"/>
		<path class="st8" d="M300.2,82c3.5-0.2,6.7,1.7,8.1,4.9l12.7-4.6c-3.7-8.6-10.7-12.9-21-12.9c-6.7,0-12.1,2.1-16.4,6.3
			c-4,3.9-6.2,9.4-6,15c-0.5,11.5,8.4,21.2,19.9,21.7c0.5,0,1.1,0,1.6,0c5.1,0.1,10.1-1.3,14.3-4c3.8-2.4,6.6-6.2,7.8-10.5l-13-3.5
			c-1.4,3.1-4.6,5.1-8,5c-2.3,0-4.5-1-6-2.7c-1.6-1.7-2.4-4-2.4-6.3c0-2.2,0.8-4.4,2.4-5.9C295.8,82.9,298,82,300.2,82L300.2,82z"/>
		<g id="g850" transform="translate(5,-10.272267)">
			<g id="g1408" transform="translate(0.48831075,-0.95746814)">
				<g id="g1004" transform="translate(-0.30014987,-1.6883585)">
					<g id="g992" transform="matrix(0.83348775,0,0,0.83348775,3.5714881,-2.4175099)">
						<g id="path980">
							<path class="st4" d="M1032.8,138.4c2.2,0,4,0.1,5,0.4c1.1,0.3,2.2,0.7,3.2,1.5c1.1,0.8,1.8,1.7,2.4,2.9
								c0.5,1.2,0.8,2.4,0.8,3.8c0,1.6-0.3,2.9-0.9,4c-0.5,1.1-1.6,2-2.9,2.9c1.7,0.7,2.9,1.6,3.7,2.8c0.8,1.2,1.2,2.8,1.2,4.5
								c0,1.6-0.3,3-0.9,4.4c-0.7,1.3-1.6,2.5-2.6,3.4c-1.1,0.8-2.2,1.5-3.7,1.7c-1.3,0.3-3.2,0.5-5.5,0.5h-13.9v-32.7L1032.8,138.4
								z M1025.3,151.4h6.7c2,0,3.4-0.3,4.2-0.7c0.8-0.5,1.1-1.5,1.1-2.8c0-1.3-0.4-2.2-1.2-2.8c-0.8-0.5-2.1-0.8-4-0.8h-6.9V151.4z
								 M1025.3,165.2h6.6c2.5,0,4.2-0.3,5.1-0.8c0.9-0.7,1.5-1.7,1.5-3.3c0-1.7-0.4-2.8-1.3-3.3c-0.9-0.5-2.6-0.8-5.1-0.8h-6.6v8.2
								H1025.3z"/>
						</g>
						<g id="path982">
							<path class="st4" d="M1065.7,138.4c2.1,0,3.8,0.1,4.9,0.4c1.1,0.3,2.1,0.7,3,1.2c0.1,0,0.1,0.1,0.3,0.1
								c0.1,0,0.1,0.1,0.3,0.1c1.2,0.8,2,1.8,2.5,3.2c0.5,1.3,0.8,2.8,0.8,4.4c0,2-0.4,3.4-1.1,4.5c-0.8,1.1-2,2.1-3.6,3
								c0.7,0.3,1.2,0.5,1.6,0.8c0.4,0.3,0.7,0.7,0.9,0.9c0.7,0.8,0.9,1.7,1.1,2.9c0.1,1.2,0.3,2.4,0.3,3.7c0,0.1,0,0.1,0,0.3
								c0,0.1,0,0.3,0,0.3v0.1v0.1c0,1.3,0.1,2.5,0.3,3.7c0.1,1.2,0.5,2,1.2,2.6h-7.5c-0.1-0.3-0.3-0.5-0.3-0.8
								c-0.1-0.3-0.1-0.5-0.3-0.7c-0.1-0.4-0.1-0.9-0.3-1.5c0-0.5-0.1-1.2-0.1-2.2c0-0.3,0-0.5,0-0.8c0-0.3,0-0.5,0-0.8
								c0-2-0.3-3.6-0.7-4.6c-0.5-1.1-2.1-1.6-4.7-1.6h-6.2v12.9h-6.7v-32.3L1065.7,138.4z M1058,152.7h6.5c2.2,0,3.8-0.3,4.7-0.9
								c0.9-0.7,1.3-1.7,1.3-3.3s-0.4-2.6-1.3-3.3c-0.8-0.5-2.5-0.9-4.7-0.9h-6.5V152.7z"/>
						</g>
						<g id="path984">
							<path class="st4" d="M1094,138.4h7.5l11.5,32.7h-7.1l-2.2-6.9h-11.9l-2.2,6.9h-7.1L1094,138.4z M1101.8,158.7l-4.1-12.8
								l-4.1,12.8H1101.8z"/>
						</g>
						<g id="path986">
							<path class="st4" d="M1117.6,160.9h6.5c0.4,2,1.2,3.4,2.4,4.2c1.2,0.8,2.8,1.2,4.7,1.2c1.8,0,3.3-0.4,4.4-1.1
								c1.1-0.7,1.7-1.6,1.7-2.8c0-0.7-0.3-1.2-0.7-1.6c-0.4-0.5-1.2-0.9-2.1-1.2l-9.9-3.8c-2-0.7-3.4-1.7-4.6-2.9
								c-1.2-1.2-1.7-2.9-1.7-5.1c0-3,1.1-5.4,3.3-7.3s5.1-2.8,8.7-2.8c4,0,7,0.9,9.2,2.8s3.3,4.4,3.6,7.8h-6.6
								c-0.4-1.7-0.9-3-2-3.8c-0.9-0.8-2.4-1.2-4.2-1.2c-1.6,0-2.9,0.4-4,1.1c-1.1,0.7-1.6,1.6-1.6,2.6c0,0.5,0.1,0.9,0.5,1.5
								c0.4,0.4,0.9,0.8,1.7,1.1l10.3,3.8c2,0.8,3.7,1.8,4.9,2.9c1.2,1.1,1.8,2.9,1.8,5.3c0,1.6-0.4,3-1.1,4.4
								c-0.7,1.3-1.7,2.5-3,3.6c-1.1,0.8-2.4,1.5-3.7,1.7c-1.3,0.3-3,0.5-5,0.5c-2.8,0-5.1-0.4-7-1.2c-2-0.8-3.4-2-4.6-3.4
								c0-0.1-0.1-0.1-0.1-0.3c0-0.1-0.1-0.1-0.1-0.3c-0.5-0.7-0.8-1.5-1.1-2.4C1117.9,163.2,1117.7,162.3,1117.6,160.9z"/>
						</g>
						<g id="path988">
							<path class="st4" d="M1156.5,138.4v32.7h-6.7v-32.7H1156.5z"/>
						</g>
						<g id="path990">
							<path class="st4" d="M1172.4,138.4v26.8h15.8v5.9h-22.6v-32.7L1172.4,138.4z"/>
						</g>
					</g>
				</g>
			</g>
			<g>
				<path class="st2" d="M999.2,13.8L999.2,13.8L999.2,13.8l0,70.4c0,2.4-1.3,4.6-3.4,5.8c-3.2,1.8-7.3,0.7-9.1-2.4l-33.4-57.9
					c-0.4-0.7-1.2-1.2-2.1-1.2c-0.7,0-1.3,0.3-1.7,0.7c-0.4,0.4-0.7,1-0.7,1.7v53.4c0,2.4-1.3,4.6-3.4,5.8c-3.2,1.8-7.3,0.7-9.1-2.4
					l-33.4-57.9c-0.4-0.7-1.2-1.2-2.1-1.2c0,0,0,0,0,0c-1.3,0-2.4,1.1-2.4,2.4v53.4c0,3.7-3,6.6-6.7,6.6h-27
					c-18.6,0-33.7-14.9-33.7-33.3c0-8.9,3.5-17.3,9.9-23.6c6.4-6.3,14.8-9.8,23.8-9.8h14.7V13.8h-14.7c-24.4,0-44.2,19.6-44.2,43.7
					s19.8,43.7,44.2,43.7h27c9.5,0,17.2-7.6,17.2-17V60.8l18.4,31.8c3.1,5.3,8.7,8.5,14.9,8.6c9.5,0,17.2-7.6,17.2-17V60.8
					l18.4,31.8c3.1,5.3,8.7,8.5,14.9,8.6c9.5,0,17.2-7.6,17.2-17V13.8H999.2z"/>
				<path class="st2" d="M845.7,57.5c0-10.3,8.5-18.7,18.9-18.7h14.7V28.4h-14.7c-7.9,0-15.2,3-20.8,8.5c-5.5,5.5-8.6,12.8-8.6,20.6
					c0,16,13.2,29.1,29.4,29.1h27c1.3,0,2.4-1.1,2.4-2.4V30.8c0-3.7,3-6.6,6.7-6.6c0,0,0,0,0,0c2.4,0,4.6,1.3,5.8,3.3L940,85.4
					c0.7,1.1,2.2,1.6,3.3,0.9c0.7-0.4,1.2-1.2,1.2-2.1V30.8c0-1.8,0.7-3.4,1.9-4.7c1.3-1.3,2.9-2,4.7-2c0,0,0,0,0,0
					c2.4,0,4.6,1.3,5.8,3.3l33.4,57.9c0.7,1.1,2.2,1.5,3.3,0.9c0.7-0.4,1.2-1.2,1.2-2.1V13.8h0l0,0h-10.5v40.4l-18.4-31.8
					c-3.1-5.3-8.7-8.5-14.9-8.6c-9.5,0-17.2,7.6-17.2,17v23.4l-18.4-31.8c-3.1-5.3-8.7-8.5-14.9-8.6c-9.5,0-17.2,7.6-17.2,17v43
					c0,1.3-1.1,2.4-2.5,2.4h-16.5C854.2,76.2,845.7,67.8,845.7,57.5z"/>
			</g>
		</g>
	</g>
</g>
</svg>
