<?xml version="1.0" encoding="utf-8"?>
<!-- Generator: Adobe Illustrator 24.0.1, SVG Export Plug-In . SVG Version: 6.00 Build 0)  -->
<svg version="1.1" id="Camada_1" xmlns="http://www.w3.org/2000/svg" xmlns:xlink="http://www.w3.org/1999/xlink" x="0px" y="0px"
	 viewBox="0 0 24.6 27.3" style="enable-background:new 0 0 24.6 27.3;" xml:space="preserve">
<style type="text/css">
	.st0{fill:url(#SVGID_1_);}
	.st1{fill:url(#SVGID_2_);}
</style>
<linearGradient id="SVGID_1_" gradientUnits="userSpaceOnUse" x1="19.5894" y1="12.6144" x2="7.0504" y2="25.1534" gradientTransform="matrix(1 0 0 -1 0 30)">
	<stop  offset="0" style="stop-color:#FD1F0B"/>
	<stop  offset="1" style="stop-color:#9F0D00"/>
</linearGradient>
<path class="st0" d="M21.2,0.9l-12.1,21l-5.8-10c-0.5-0.9-1.6-1.2-2.5-0.7s-1.2,1.6-0.7,2.5l7.3,12.7C7.9,27.3,9,27.5,9.9,27
	c0.3-0.2,0.5-0.4,0.6-0.6L24.3,2.7c0.5-0.9,0.2-2-0.7-2.5S21.7,0,21.2,0.9L21.2,0.9z"/>
<linearGradient id="SVGID_2_" gradientUnits="userSpaceOnUse" x1="-5.0044" y1="-1596.6549" x2="28.8561" y2="-1630.5154" gradientTransform="matrix(1 0 0 -1 0 -1738)">
	<stop  offset="0" style="stop-color:#FD1F0B"/>
	<stop  offset="1" style="stop-color:#9F0D00"/>
</linearGradient>
<path class="st1" d="M28.9-141.3c15.1,15.1,4.3,40.9-16.9,40.9s-32-25.8-16.9-40.9C4.3-150.6,19.5-150.6,28.9-141.3
	C28.8-141.3,28.8-141.3,28.9-141.3z"/>
</svg>
